<svg width="15" height="15" viewBox="0 0 15 15" fill="none" xmlns="http://www.w3.org/2000/svg">
<g clip-path="url(#clip0_1728_3465)">
<path d="M8.93094 1.42351C9.64865 1.42351 10.2306 2.00663 10.2307 2.72429V3.37273H12.8284C13.546 3.37285 14.1281 3.95493 14.1282 4.67253V7.27116C14.1282 7.8764 13.7137 8.38336 13.1536 8.528V12.1442C13.1533 13.0409 12.4263 13.768 11.5296 13.7682H3.08426C2.18733 13.7682 1.4596 13.0411 1.45926 12.1442V8.528C0.899112 8.38337 0.48465 7.87641 0.48465 7.27116V4.67253C0.48476 3.95492 1.06686 3.37284 1.78445 3.37273H4.38309V2.72429C4.3832 2.0067 4.96528 1.42362 5.68289 1.42351H8.93094ZM2.76004 12.1442C2.76038 12.3231 2.90528 12.4684 3.08426 12.4684H11.5296C11.7083 12.4682 11.8535 12.323 11.8538 12.1442V8.57097H10.8811V9.22136C10.8807 9.57995 10.5894 9.87077 10.2307 9.87077C9.87204 9.87077 9.58081 9.57995 9.58035 9.22136V8.57097H5.03348V9.22136C5.03302 9.57995 4.74179 9.87077 4.38309 9.87077C4.02439 9.87077 3.73316 9.57995 3.7327 9.22136V8.57097H2.76004V12.1442ZM1.78543 7.27116H3.7327C3.73296 6.9124 4.02426 6.62175 4.38309 6.62175C4.74191 6.62175 5.03321 6.9124 5.03348 7.27116H9.58035C9.58062 6.9124 9.87192 6.62175 10.2307 6.62175C10.5896 6.62175 10.8809 6.9124 10.8811 7.27116H12.8274V4.67351H1.78543V7.27116ZM5.68387 3.37273H8.93094V2.72527H5.68387V3.37273Z" fill="#666F8D"/>
</g>
<defs>
<clipPath id="clip0_1728_3465">
<rect width="14" height="14" fill="white" transform="translate(0.306915 0.596359)"/>
</clipPath>
</defs>
</svg>
