<svg width="15" height="15" viewBox="0 0 15 15" fill="none" xmlns="http://www.w3.org/2000/svg">
<g clip-path="url(#clip0_1725_3435)">
<path d="M11.5891 12.526C11.9706 12.526 12.2796 12.835 12.2796 13.2165C12.2796 13.5979 11.9706 13.9069 11.5891 13.9069H3.02469C2.64323 13.9069 2.33426 13.5979 2.33426 13.2165C2.33426 12.835 2.64323 12.526 3.02469 12.526H11.5891ZM11.2122 1.44695C12.7973 1.52727 14.0579 2.83794 14.0579 4.44304V8.6198C14.0576 10.2247 12.7972 11.5366 11.2122 11.6169L11.0579 11.6208H3.55594L3.40164 11.6169C1.86791 11.5392 0.638036 10.3087 0.559845 8.77507L0.555939 8.62077V4.44304C0.555939 2.78618 1.89908 1.44206 3.55594 1.44206H11.0579L11.2122 1.44695ZM3.55594 2.82487C2.66201 2.82487 1.93777 3.54911 1.93777 4.44304V8.62077C1.9383 9.51426 2.66233 10.2389 3.55594 10.2389H11.0579C11.9517 10.2389 12.6758 9.51351 12.6761 8.6198V4.44304C12.6761 3.54911 11.9518 2.82487 11.0579 2.82487H3.55594ZM8.9827 4.91374C9.25233 4.64411 9.6895 4.64431 9.95926 4.91374C10.2287 5.18341 10.2296 5.62063 9.96024 5.8903L7.44852 8.40202C7.17878 8.67176 6.74071 8.67078 6.47098 8.40105L5.23172 7.16179C4.96199 6.89206 4.96199 6.45496 5.23172 6.18523C5.50145 5.91549 5.93855 5.91549 6.20828 6.18523L6.95926 6.9362L8.9827 4.91374Z" fill="#666F8D"/>
</g>
<defs>
<clipPath id="clip0_1725_3435">
<rect width="14" height="14" fill="white" transform="translate(0.306915 0.596359)"/>
</clipPath>
</defs>
</svg>
