<svg width="15" height="15" viewBox="0 0 15 15" fill="none" xmlns="http://www.w3.org/2000/svg">
<g clip-path="url(#clip0_1717_3440)">
<path d="M7.30692 0.926437C10.9906 0.926437 13.9768 3.91266 13.9768 7.59636C13.9768 11.2801 10.9906 14.2663 7.30692 14.2663C3.62322 14.2663 0.636993 11.2801 0.636993 7.59636C0.636993 3.91266 3.62322 0.926437 7.30692 0.926437ZM7.30692 2.30827C4.38614 2.30827 2.01883 4.67558 2.01883 7.59636C2.01883 10.5171 4.38614 12.8844 7.30692 12.8844C10.2277 12.8844 12.595 10.5171 12.595 7.59636C12.595 4.67558 10.2277 2.30827 7.30692 2.30827ZM9.02957 5.39909C9.26575 5.09979 9.69981 5.0488 9.9993 5.28484C10.2984 5.52082 10.3499 5.95411 10.1145 6.25359L7.32156 9.79655C7.31383 9.80636 7.30334 9.81365 7.2952 9.82292C7.28684 9.83241 7.28073 9.84407 7.27176 9.8532C7.26443 9.86065 7.25492 9.86568 7.24734 9.87273C7.2297 9.88917 7.21163 9.90434 7.19266 9.91862C7.17352 9.93306 7.15427 9.94648 7.13406 9.95866C7.11707 9.96888 7.09999 9.97833 7.08231 9.98698C7.05918 9.99832 7.03601 10.0087 7.01199 10.0173C6.99397 10.0237 6.97575 10.0289 6.95731 10.0339C6.93366 10.0402 6.9101 10.0457 6.88602 10.0495C6.86559 10.0527 6.84512 10.054 6.82449 10.0553C6.80166 10.0568 6.779 10.0581 6.75613 10.0573C6.73422 10.0566 6.71253 10.0543 6.6907 10.0514C6.66939 10.0487 6.64826 10.0455 6.62723 10.0407C6.60344 10.0353 6.5802 10.0282 6.55692 10.0202C6.5381 10.0138 6.51957 10.0068 6.50125 9.9987C6.48057 9.98953 6.46067 9.97881 6.4407 9.96745C6.41842 9.9548 6.39634 9.94177 6.37527 9.92644C6.3681 9.92122 6.35985 9.91732 6.35281 9.91179C6.34332 9.90431 6.33543 9.89428 6.32645 9.8864C6.31678 9.87791 6.30547 9.8711 6.29617 9.86198L4.55692 8.153C4.28528 7.88557 4.28185 7.44835 4.5491 7.17644C4.81648 6.90474 5.25371 6.90146 5.52567 7.16862L6.71414 8.33659L9.02957 5.39909Z" fill="#666F8D"/>
</g>
<defs>
<clipPath id="clip0_1717_3440">
<rect width="14" height="14" fill="white" transform="translate(0.306915 0.596359)"/>
</clipPath>
</defs>
</svg>
