<svg width="15" height="15" viewBox="0 0 15 15" fill="none" xmlns="http://www.w3.org/2000/svg">
<g clip-path="url(#clip0_1724_3419)">
<path d="M7.30692 0.926437C10.9906 0.926437 13.9768 3.91266 13.9768 7.59636C13.9768 11.2801 10.9906 14.2663 7.30692 14.2663C3.62322 14.2663 0.636993 11.2801 0.636993 7.59636C0.636993 3.91266 3.62322 0.926437 7.30692 0.926437ZM7.30692 2.30827C4.38614 2.30827 2.01883 4.67558 2.01883 7.59636C2.01883 10.5171 4.38614 12.8844 7.30692 12.8844C10.2277 12.8844 12.595 10.5171 12.595 7.59636C12.595 4.67558 10.2277 2.30827 7.30692 2.30827ZM4.4241 4.91667C4.69384 4.64694 5.13093 4.64694 5.40067 4.91667L7.14481 6.66081L8.72684 4.93816C8.98469 4.6572 9.42137 4.63748 9.70242 4.89519C9.98348 5.1531 10.0014 5.59069 9.74344 5.87175L8.12234 7.63835L9.72391 9.23991C9.99359 9.50965 9.99362 9.94676 9.72391 10.2165C9.45417 10.4859 9.017 10.4861 8.74734 10.2165L7.18777 8.65593L5.60672 10.3805C5.34878 10.6614 4.91212 10.6794 4.63113 10.4216C4.35026 10.1636 4.33129 9.72696 4.58914 9.44597L6.21024 7.67839L4.4241 5.89226C4.1547 5.62259 4.1547 5.18634 4.4241 4.91667Z" fill="#666F8D"/>
</g>
<defs>
<clipPath id="clip0_1724_3419">
<rect width="14" height="14" fill="white" transform="translate(0.306915 0.596359)"/>
</clipPath>
</defs>
</svg>
