<svg width="16" height="16" viewBox="0 0 16 16" fill="none" xmlns="http://www.w3.org/2000/svg">
<path d="M8 1.88745C10.7614 1.88747 12.9999 4.12608 13 6.88745C12.9999 8.88992 11.8224 10.6155 10.124 11.4138L9.96387 13.3464C9.92773 13.7781 9.56678 14.1108 9.13379 14.1111H6.86719C6.43398 14.1111 6.07222 13.7784 6.03613 13.3464L5.875 11.4138C4.17709 10.6153 3.00013 8.88958 3 6.88745C3.00006 4.1261 5.23865 1.88751 8 1.88745ZM7.12207 12.9998H8.87793L8.99512 11.5916H7.00488L7.12207 12.9998ZM8 2.99878C5.8523 2.99884 4.11139 4.73975 4.11133 6.88745C4.11146 8.50778 5.10358 9.8961 6.51465 10.4802H9.48535C10.8965 9.89614 11.8885 8.50785 11.8887 6.88745C11.8886 4.73973 10.1477 2.9988 8 2.99878ZM9.66602 5.50073C9.97284 5.50073 10.2217 5.74957 10.2217 6.0564V7.72339C10.2215 7.91568 10.1216 8.09493 9.95801 8.19604C9.79436 8.29678 9.58989 8.30544 9.41797 8.21948L7.99902 7.5105L6.58105 8.21948C6.40903 8.30527 6.2046 8.29703 6.04102 8.19604C5.87747 8.09492 5.77757 7.91565 5.77734 7.72339V6.0564C5.77734 5.74968 6.02633 5.50091 6.33301 5.50073C6.63983 5.50073 6.88867 5.74957 6.88867 6.0564V6.82397L7.75098 6.39331L7.81152 6.36694C7.95351 6.31583 8.11138 6.32502 8.24805 6.39331L9.11035 6.82397V6.0564C9.11035 5.74979 9.35949 5.50108 9.66602 5.50073Z" fill="#666F8D"/>
</svg>
